<svg xmlns="http://www.w3.org/2000/svg" width="64" height="64" xmlns:v="https://vecta.io/nano"><defs><radialGradient cx="52.528" cy="-49.92" fx="52.528" fy="-49.92" r="104.617" gradientTransform="matrix(0.61175174,0,0,0.61330507,-0.13396855,-1.3836033)" id="A" gradientUnits="userSpaceOnUse"><stop stop-color="#20c6b7" offset="0%"/><stop stop-color="#4d9abf" offset="100%"/></radialGradient></defs><path d="M46.346 22.21l-.023-.01c-.013-.005-.027-.01-.038-.022-.039-.042-.056-.099-.047-.155l1.288-7.888 6.042 6.052-6.284 2.677c-.017.007-.036.011-.055.01h-.025c-.008-.005-.017-.012-.033-.028a2.86 2.86 0 0 0-.825-.636zm8.764-.481l6.46 6.47c1.342 1.345 2.013 2.016 2.258 2.794.037.115.067.23.09.349L48.48 24.793l-.025-.01c-.062-.025-.133-.053-.133-.117s.073-.093.135-.118l.02-.008zm8.545 11.689c-.333.628-.983 1.279-2.083 2.382l-7.284 7.292-9.42-1.965-.05-.01c-.083-.013-.172-.028-.172-.103a2.85 2.85 0 0 0-1.092-1.991c-.038-.038-.028-.098-.017-.154 0-.008 0-.017.003-.023l1.772-10.893.007-.037c.01-.083.025-.18.1-.18.767-.096 1.464-.495 1.933-1.11.015-.017.025-.035.045-.045.053-.025.117 0 .172.023l16.084 6.813zM52.613 44.77L40.636 56.764l2.05-12.619.003-.017a.26.26 0 0 1 .01-.048c.017-.04.06-.057.102-.073l.02-.008c.449-.192.846-.488 1.158-.863.04-.047.088-.092.15-.1.016-.003.032-.003.048 0l8.434 1.736zM38.101 59.303l-1.35 1.352-14.926-21.602-.017-.023c-.023-.032-.048-.063-.043-.1 0-.027.018-.05.037-.07l.017-.022.125-.205.033-.058.005-.005c.023-.04.045-.078.085-.1.035-.017.083-.01.122-.002l16.536 3.415c.046.007.09.026.127.055.022.022.027.045.032.072a2.93 2.93 0 0 0 1.713 1.961c.047.023.027.075.005.13-.011.024-.019.049-.025.075l-2.475 15.127zm-2.82 2.823c-.995.986-1.582 1.509-2.245 1.719a3.33 3.33 0 0 1-2.01 0c-.777-.247-1.448-.918-2.79-2.263L13.247 46.571l3.915-6.081c.018-.03.037-.057.067-.078.042-.03.102-.017.152 0a4.05 4.05 0 0 0 2.73-.139c.045-.017.09-.028.125.003a.3.3 0 0 1 .047.053l14.999 21.797zM11.802 45.124L8.363 41.68l6.79-2.901c.017-.008.036-.012.055-.012.057 0 .09.057.12.108a4.85 4.85 0 0 0 .217.307l.022.027c.02.028.007.057-.013.083l-3.75 5.83zm-4.96-4.967L2.491 35.8.841 34.059l13.227 2.747a1.04 1.04 0 0 0 .05.008c.082.013.172.028.172.105 0 .083-.098.122-.182.154l-.038.017zm-6.76-8.337c.015-.281.065-.558.15-.826.247-.778.917-1.449 2.26-2.794l5.567-5.575 7.71 11.162c.045.06.095.127.043.177-.243.269-.487.562-.658.881-.019.041-.047.077-.083.103-.022.013-.045.008-.07.003h-.003L.081 31.817zm9.467-10.687l7.482-7.496 5.555 2.36 3.81 1.619c.05.02.095.04.117.09.013.03.006.068 0 .1-.241 1.099.087 2.246.872 3.051.05.05 0 .122-.043.184l-.023.035-7.6 11.789c-.02.033-.038.062-.072.083-.04.025-.097.013-.143.002-.296-.078-.599-.119-.905-.124-.273 0-.57.05-.87.105h-.002c-.033.005-.063.012-.09-.008a.35.35 0 0 1-.075-.085L9.547 21.132zm8.997-9.01l9.69-9.704c1.342-1.344 2.013-2.016 2.79-2.262a3.33 3.33 0 0 1 2.01 0c.777.245 1.448.918 2.79 2.262l2.1 2.103-6.892 10.689c-.017.031-.04.058-.068.08-.042.028-.1.017-.15 0a3.49 3.49 0 0 0-3.2.618c-.045.047-.112.02-.168-.005l-8.902-3.781zm20.844-6.136l6.364 6.373-1.533 9.511v.025c-.001.022-.006.043-.013.063-.017.033-.05.04-.083.05a3.05 3.05 0 0 0-.913.456.29.29 0 0 0-.033.028c-.018.02-.037.038-.067.042-.024.001-.049-.003-.072-.012l-9.697-4.126-.018-.008c-.062-.025-.135-.055-.135-.118a3.67 3.67 0 0 0-.517-1.527c-.047-.077-.098-.157-.058-.235zM32.836 20.35l9.09 3.856c.05.023.105.045.127.097.009.031.009.064 0 .095-.027.134-.05.285-.05.439v.255c0 .063-.065.09-.125.115l-.018.006-20.246 8.634c-.028 0-.058 0-.087-.028-.05-.05 0-.12.045-.184l.023-.033 7.47-11.584.013-.02c.043-.07.093-.149.173-.149l.075.012.472.045c1.133 0 2.183-.552 2.817-1.497a.27.27 0 0 1 .057-.067c.045-.033.112-.017.163.006zm-10.41 15.331l20.468-8.741a.09.09 0 0 0 .058.028 2.77 2.77 0 0 0 .298.257l.045.028c.042.023.083.05.087.093 0 .017 0 .027-.004.042l-1.753 10.786-.007.043c-.012.083-.023.179-.102.179a2.88 2.88 0 0 0-2.288 1.414l-.008.013c-.023.038-.045.075-.083.095s-.08.01-.117.002l-16.322-3.372c-.017-.003-.253-.866-.272-.868z" fill="url(#A)"/></svg>